<svg xmlns="http://www.w3.org/2000/svg" xmlns:xlink="http://www.w3.org/1999/xlink" width="40" zoomAndPan="magnify" viewBox="0 0 30 30.000001" height="40" preserveAspectRatio="xMidYMid meet" version="1.0"><defs><clipPath id="0f89f99e4b"><path d="M 13 16 L 17 16 L 17 19 L 13 19 Z M 13 16 " clip-rule="nonzero"/></clipPath><clipPath id="ca1345199e"><path d="M 14.011719 16.394531 L 16.832031 17.082031 L 16.316406 19.199219 L 13.496094 18.511719 Z M 14.011719 16.394531 " clip-rule="nonzero"/></clipPath><clipPath id="93fe5d1798"><path d="M 14.011719 16.394531 L 16.832031 17.082031 L 16.316406 19.199219 L 13.496094 18.511719 Z M 14.011719 16.394531 " clip-rule="nonzero"/></clipPath><clipPath id="979ac985a3"><path d="M 14 17 L 17 17 L 17 19 L 14 19 Z M 14 17 " clip-rule="nonzero"/></clipPath><clipPath id="0a05de3779"><path d="M 14.011719 16.394531 L 16.832031 17.082031 L 16.316406 19.199219 L 13.496094 18.511719 Z M 14.011719 16.394531 " clip-rule="nonzero"/></clipPath><clipPath id="fb846d140f"><path d="M 14.011719 16.394531 L 16.832031 17.082031 L 16.316406 19.199219 L 13.496094 18.511719 Z M 14.011719 16.394531 " clip-rule="nonzero"/></clipPath><clipPath id="573e9ac48a"><path d="M 13 16 L 17 16 L 17 19 L 13 19 Z M 13 16 " clip-rule="nonzero"/></clipPath><clipPath id="69a3e3383d"><path d="M 14.011719 16.394531 L 16.832031 17.082031 L 16.316406 19.199219 L 13.496094 18.511719 Z M 14.011719 16.394531 " clip-rule="nonzero"/></clipPath><clipPath id="1393020d36"><path d="M 14.011719 16.394531 L 16.832031 17.082031 L 16.316406 19.199219 L 13.496094 18.511719 Z M 14.011719 16.394531 " clip-rule="nonzero"/></clipPath><clipPath id="623702a370"><path d="M 0.484375 2 L 29.515625 2 L 29.515625 26 L 0.484375 26 Z M 0.484375 2 " clip-rule="nonzero"/></clipPath><clipPath id="7d8a351c3c"><path d="M 2.203125 -1.046875 L 31.117188 6 L 25.445312 29.269531 L -3.46875 22.222656 Z M 2.203125 -1.046875 " clip-rule="nonzero"/></clipPath><clipPath id="feb58f2c93"><path d="M 2.203125 -1.046875 L 31.117188 6 L 25.445312 29.269531 L -3.46875 22.222656 Z M 2.203125 -1.046875 " clip-rule="nonzero"/></clipPath><clipPath id="72ed835b1b"><path d="M 3 7 L 27 7 L 27 23 L 3 23 Z M 3 7 " clip-rule="nonzero"/></clipPath><clipPath id="815fc2423e"><path d="M 2.203125 -1.046875 L 31.117188 6 L 25.445312 29.269531 L -3.46875 22.222656 Z M 2.203125 -1.046875 " clip-rule="nonzero"/></clipPath><clipPath id="adace8a1ed"><path d="M 2.203125 -1.046875 L 31.117188 6 L 25.445312 29.269531 L -3.46875 22.222656 Z M 2.203125 -1.046875 " clip-rule="nonzero"/></clipPath><clipPath id="f7c1d25ac8"><path d="M 1 4 L 29 4 L 29 24 L 1 24 Z M 1 4 " clip-rule="nonzero"/></clipPath><clipPath id="b906e5d828"><path d="M 2.203125 -1.046875 L 31.117188 6 L 25.445312 29.269531 L -3.46875 22.222656 Z M 2.203125 -1.046875 " clip-rule="nonzero"/></clipPath><clipPath id="7467119caa"><path d="M 2.203125 -1.046875 L 31.117188 6 L 25.445312 29.269531 L -3.46875 22.222656 Z M 2.203125 -1.046875 " clip-rule="nonzero"/></clipPath></defs><g clip-path="url(#0f89f99e4b)"><g clip-path="url(#ca1345199e)"><g clip-path="url(#93fe5d1798)"><path fill="#ffffff" d="M 15.570312 17.488281 L 15.332031 16.859375 C 15.300781 16.785156 15.230469 16.738281 15.152344 16.734375 C 15.074219 16.730469 15 16.773438 14.964844 16.84375 L 14.640625 17.492188 L 14.160156 17.105469 C 14.089844 17.050781 13.996094 17.046875 13.921875 17.089844 C 13.847656 17.136719 13.808594 17.222656 13.824219 17.308594 L 14.039062 18.421875 C 14.054688 18.503906 14.117188 18.566406 14.199219 18.582031 C 14.484375 18.628906 14.757812 18.65625 15.023438 18.667969 C 15.3125 18.679688 15.589844 18.667969 15.859375 18.636719 C 15.933594 18.625 15.992188 18.574219 16.015625 18.503906 C 16.015625 18.503906 16.421875 17.214844 16.421875 17.214844 C 16.445312 17.132812 16.414062 17.042969 16.339844 16.992188 C 16.265625 16.945312 16.171875 16.953125 16.105469 17.011719 Z M 15.570312 17.488281 " fill-opacity="1" fill-rule="evenodd"/></g></g></g><g clip-path="url(#979ac985a3)"><g clip-path="url(#0a05de3779)"><g clip-path="url(#fb846d140f)"><path fill="#5371ff" d="M 14.132812 17.441406 L 14.667969 17.863281 C 14.6875 17.875 14.707031 17.878906 14.726562 17.875 C 14.746094 17.871094 14.765625 17.859375 14.773438 17.839844 L 15.136719 17.09375 C 15.136719 17.09375 15.433594 17.847656 15.433594 17.847656 C 15.441406 17.863281 15.457031 17.878906 15.476562 17.882812 C 15.496094 17.886719 15.515625 17.882812 15.53125 17.871094 L 16.117188 17.339844 C 16.117188 17.339844 15.792969 18.394531 15.792969 18.394531 C 15.550781 18.421875 15.296875 18.429688 15.035156 18.417969 C 14.792969 18.40625 14.542969 18.378906 14.285156 18.332031 C 14.285156 18.332031 14.132812 17.441406 14.132812 17.441406 Z M 14.132812 17.441406 " fill-opacity="1" fill-rule="evenodd"/></g></g></g><g clip-path="url(#573e9ac48a)"><g clip-path="url(#69a3e3383d)"><g clip-path="url(#1393020d36)"><path fill="#031129" d="M 14.074219 17.210938 C 14.050781 17.195312 14.019531 17.191406 13.992188 17.207031 C 13.96875 17.222656 13.953125 17.253906 13.960938 17.28125 L 14.171875 18.398438 C 14.175781 18.421875 14.195312 18.441406 14.222656 18.445312 C 14.5 18.492188 14.769531 18.519531 15.027344 18.53125 C 15.308594 18.542969 15.582031 18.53125 15.839844 18.5 C 15.863281 18.496094 15.878906 18.480469 15.886719 18.460938 L 16.289062 17.175781 C 16.296875 17.148438 16.289062 17.121094 16.265625 17.109375 C 16.246094 17.09375 16.214844 17.097656 16.195312 17.113281 L 15.515625 17.71875 C 15.515625 17.71875 15.203125 16.910156 15.203125 16.910156 C 15.195312 16.886719 15.171875 16.871094 15.144531 16.871094 C 15.121094 16.867188 15.097656 16.882812 15.085938 16.90625 L 14.6875 17.703125 C 14.6875 17.703125 14.074219 17.210938 14.074219 17.210938 Z M 14.132812 17.441406 L 14.667969 17.863281 C 14.6875 17.875 14.707031 17.878906 14.726562 17.875 C 14.746094 17.871094 14.765625 17.859375 14.773438 17.839844 L 15.136719 17.09375 C 15.136719 17.09375 15.433594 17.847656 15.433594 17.847656 C 15.441406 17.863281 15.457031 17.878906 15.476562 17.882812 C 15.496094 17.886719 15.515625 17.882812 15.53125 17.871094 L 16.117188 17.339844 C 16.117188 17.339844 15.792969 18.394531 15.792969 18.394531 C 15.550781 18.421875 15.296875 18.429688 15.035156 18.417969 C 14.792969 18.40625 14.542969 18.378906 14.285156 18.332031 C 14.285156 18.332031 14.132812 17.441406 14.132812 17.441406 Z M 14.132812 17.441406 " fill-opacity="1" fill-rule="evenodd"/></g></g></g><g clip-path="url(#623702a370)"><g clip-path="url(#7d8a351c3c)"><g clip-path="url(#feb58f2c93)"><path fill="#ffffff" d="M 20.367188 11.640625 L 17.5625 4.355469 C 17.5625 4.351562 17.5625 4.351562 17.5625 4.347656 C 17.226562 3.484375 16.410156 2.902344 15.484375 2.863281 C 14.558594 2.820312 13.695312 3.332031 13.289062 4.164062 L 9.550781 11.675781 L 3.949219 7.203125 C 3.949219 7.203125 3.945312 7.199219 3.945312 7.199219 C 3.152344 6.574219 2.054688 6.5 1.1875 7.019531 C 0.320312 7.539062 -0.132812 8.542969 0.046875 9.535156 C 0.0507812 9.542969 0.0507812 9.546875 0.0507812 9.550781 L 2.523438 22.511719 C 2.699219 23.460938 3.445312 24.199219 4.398438 24.367188 C 4.402344 24.367188 4.40625 24.367188 4.410156 24.367188 C 7.710938 24.917969 10.90625 25.253906 13.988281 25.378906 C 17.359375 25.511719 20.597656 25.390625 23.699219 24.992188 C 24.5625 24.882812 25.28125 24.277344 25.542969 23.445312 C 25.542969 23.449219 30.238281 8.46875 30.238281 8.46875 C 30.539062 7.5 30.160156 6.449219 29.304688 5.902344 C 28.453125 5.351562 27.34375 5.441406 26.585938 6.113281 Z M 20.367188 11.640625 " fill-opacity="1" fill-rule="evenodd"/></g></g></g><g clip-path="url(#72ed835b1b)"><g clip-path="url(#815fc2423e)"><g clip-path="url(#adace8a1ed)"><path fill="#5371ff" d="M 3.632812 11.109375 L 9.875 16.003906 C 10.0625 16.152344 10.308594 16.207031 10.542969 16.15625 C 10.777344 16.101562 10.976562 15.945312 11.082031 15.730469 L 15.308594 7.050781 C 15.308594 7.050781 18.753906 15.8125 18.753906 15.8125 C 18.839844 16.027344 19.023438 16.1875 19.25 16.242188 C 19.472656 16.296875 19.710938 16.238281 19.882812 16.082031 L 26.738281 9.910156 C 26.738281 9.910156 22.929688 22.199219 22.929688 22.199219 C 20.105469 22.527344 17.164062 22.617188 14.113281 22.464844 C 11.304688 22.328125 8.40625 21.988281 5.417969 21.46875 C 5.417969 21.46875 3.632812 11.109375 3.632812 11.109375 Z M 3.632812 11.109375 " fill-opacity="1" fill-rule="evenodd"/></g></g></g><g clip-path="url(#f7c1d25ac8)"><g clip-path="url(#b906e5d828)"><g clip-path="url(#7467119caa)"><path fill="#031129" d="M 2.957031 8.445312 C 2.683594 8.230469 2.304688 8.203125 2.003906 8.382812 C 1.707031 8.5625 1.550781 8.910156 1.613281 9.253906 L 4.085938 22.21875 C 4.140625 22.515625 4.375 22.746094 4.671875 22.800781 C 7.902344 23.339844 11.03125 23.667969 14.054688 23.789062 C 17.332031 23.917969 20.480469 23.804688 23.496094 23.417969 C 23.746094 23.386719 23.949219 23.210938 24.023438 22.972656 L 28.722656 7.996094 C 28.8125 7.707031 28.699219 7.398438 28.445312 7.238281 C 28.195312 7.074219 27.867188 7.101562 27.644531 7.300781 L 19.707031 14.351562 C 19.707031 14.351562 16.078125 4.925781 16.078125 4.925781 C 15.972656 4.648438 15.710938 4.460938 15.414062 4.449219 C 15.121094 4.4375 14.84375 4.601562 14.714844 4.867188 L 10.09375 14.144531 C 10.09375 14.144531 2.957031 8.445312 2.957031 8.445312 Z M 3.632812 11.109375 L 9.875 16.003906 C 10.0625 16.152344 10.308594 16.207031 10.542969 16.15625 C 10.777344 16.101562 10.976562 15.945312 11.082031 15.730469 L 15.308594 7.050781 C 15.308594 7.050781 18.753906 15.8125 18.753906 15.8125 C 18.839844 16.027344 19.023438 16.1875 19.25 16.242188 C 19.472656 16.296875 19.710938 16.238281 19.882812 16.082031 L 26.738281 9.910156 C 26.738281 9.910156 22.929688 22.199219 22.929688 22.199219 C 20.105469 22.527344 17.164062 22.617188 14.113281 22.464844 C 11.304688 22.328125 8.40625 21.988281 5.417969 21.46875 C 5.417969 21.46875 3.632812 11.109375 3.632812 11.109375 Z M 3.632812 11.109375 " fill-opacity="1" fill-rule="evenodd"/></g></g></g></svg>